<svg width="32" height="32" viewBox="0 0 32 32" fill="none" xmlns="http://www.w3.org/2000/svg">
<path fill-rule="evenodd" clip-rule="evenodd" d="M15.7927 28.8826C10.8703 28.8826 6.66663 28.1166 6.66663 25.0489C6.66663 21.9812 10.8436 19.1492 15.7927 19.1492C20.7151 19.1492 24.9187 21.9537 24.9187 25.0214C24.9187 28.0879 20.7418 28.8826 15.7927 28.8826Z" stroke="url(#paint0_linear)" stroke-width="1.5" stroke-linecap="round" stroke-linejoin="round"/>
<path fill-rule="evenodd" clip-rule="evenodd" d="M15.783 14.8982C19.0133 14.8982 21.6314 12.28 21.6314 9.04971C21.6314 5.81941 19.0133 3.20001 15.783 3.20001C12.5527 3.20001 9.93326 5.81941 9.93326 9.04971C9.92235 12.2691 12.5224 14.8873 15.7417 14.8982C15.7563 14.8982 15.7696 14.8982 15.783 14.8982Z" stroke="url(#paint1_linear)" stroke-width="1.5" stroke-linecap="round" stroke-linejoin="round"/>
<defs>
<linearGradient id="paint0_linear" x1="24.9187" y1="19.1492" x2="6.21906" y2="20.4862" gradientUnits="userSpaceOnUse">
<stop stop-color="#5221BB"/>
<stop offset="1" stop-color="#2194AD"/>
</linearGradient>
<linearGradient id="paint1_linear" x1="21.6314" y1="3.20001" x2="9.60259" y2="3.65865" gradientUnits="userSpaceOnUse">
<stop stop-color="#5221BB"/>
<stop offset="1" stop-color="#2194AD"/>
</linearGradient>
</defs>
</svg>
